<?xml version="1.0" encoding="UTF-8"?>
<svg width="512" height="512" viewBox="0 0 24 24" xmlns="http://www.w3.org/2000/svg">
    <path fill="#4f46e5" d="M7 22c-.55 0-1.02-.196-1.412-.587A1.926 1.926 0 0 1 5 20v-9c0-.55.196-1.02.588-1.413A1.926 1.926 0 0 1 7 9h2a4 4 0 0 1 4-4a4 4 0 0 1 4 4h2c.55 0 1.02.196 1.413.587c.391.392.587.863.587 1.413v9c0 .55-.196 1.02-.587 1.413A1.926 1.926 0 0 1 19 22H7Zm0-2h12v-9h-2v2c0 .283-.096.52-.288.713A.967.967 0 0 1 16 14a.967.967 0 0 1-.712-.287A.968.968 0 0 1 15 13v-2h-4v2c0 .283-.096.52-.288.713A.967.967 0 0 1 10 14a.967.967 0 0 1-.712-.287A.968.968 0 0 1 9 13v-2H7v9Zm6-13a2 2 0 0 0-2 2h4a2 2 0 0 0-2-2Z"/>
</svg> 